<?xml version="1.0" standalone="no"?>
<!DOCTYPE svg PUBLIC "-//W3C//DTD SVG 20010904//EN"
 "http://www.w3.org/TR/2001/REC-SVG-20010904/DTD/svg10.dtd">
<svg version="1.0" xmlns="http://www.w3.org/2000/svg"
 width="167.000000pt" height="167.000000pt" viewBox="0 0 167.000000 167.000000"
 preserveAspectRatio="xMidYMid meet">
<metadata>
Created by potrace 1.14, written by Peter Selinger 2001-2017
</metadata>
<g transform="translate(0.000000,167.000000) scale(0.100000,-0.100000)"
fill="#000000" stroke="none">
<path d="M0 835 l0 -835 835 0 835 0 0 835 0 835 -835 0 -835 0 0 -835z m1030
421 c90 -34 133 -97 133 -196 0 -77 -17 -115 -70 -159 -20 -17 -35 -32 -32
-33 2 -2 21 -11 41 -22 135 -68 144 -301 16 -393 -83 -60 -117 -66 -400 -71
l-258 -4 0 452 0 452 263 -4 c214 -4 270 -8 307 -22z"/>
<path d="M660 1021 l0 -101 123 0 c103 0 127 3 154 19 50 31 57 116 11 157
-17 16 -41 20 -154 22 l-134 4 0 -101z"/>
<path d="M660 660 l0 -120 130 0 c181 0 219 20 220 115 0 102 -40 125 -220
125 l-130 0 0 -120z"/>
</g>
</svg>
